<?xml version="1.0" standalone="no"?><!DOCTYPE svg PUBLIC "-//W3C//DTD SVG 1.1//EN" "http://www.w3.org/Graphics/SVG/1.1/DTD/svg11.dtd"><svg t="1695463350281" class="icon" viewBox="0 0 1024 1024" version="1.1" xmlns="http://www.w3.org/2000/svg" p-id="4060" xmlns:xlink="http://www.w3.org/1999/xlink" width="200" height="200"><path d="M512 864c-172.8 0-304-64-304-153.6 0-60.8 64-112 169.6-137.6 16-3.2 35.2 6.4 38.4 22.4 3.2 16-6.4 35.2-22.4 38.4-76.8 19.2-118.4 51.2-118.4 73.6 0 35.2 92.8 89.6 240 89.6s240-51.2 240-89.6c0-22.4-41.6-57.6-118.4-73.6-16-3.2-28.8-22.4-22.4-38.4 3.2-16 22.4-28.8 38.4-22.4 105.6 25.6 169.6 76.8 169.6 137.6C816 800 684.8 864 512 864z" fill="#333333" p-id="4061"></path><path d="M512 752c-12.8 0-25.6-9.6-32-22.4l-160-544c-6.4-16 3.2-35.2 22.4-38.4 16-6.4 35.2 3.2 38.4 22.4l160 544c6.4 16-3.2 35.2-22.4 38.4H512z" fill="#F5AA19" p-id="4062"></path><path d="M528 451.2c-67.2 0-99.2-9.6-102.4-9.6-16-3.2-28.8-22.4-22.4-38.4 3.2-16 22.4-28.8 38.4-22.4 0 0 51.2 12.8 150.4 3.2 44.8-3.2 83.2-19.2 105.6-32l-41.6-57.6c-3.2-6.4-6.4-12.8-6.4-19.2V227.2c-22.4 12.8-48 28.8-80 35.2-32 9.6-67.2 0-96-6.4-25.6-6.4-57.6-12.8-64-3.2-9.6 12.8-32 16-44.8 6.4-12.8-9.6-16-32-6.4-44.8 32-41.6 86.4-28.8 128-19.2 25.6 6.4 51.2 12.8 67.2 6.4 67.2-19.2 105.6-64 105.6-64 9.6-9.6 22.4-16 35.2-9.6 12.8 3.2 22.4 16 22.4 32l-3.2 108.8 54.4 76.8c9.6 12.8 6.4 32-6.4 41.6-3.2 3.2-64 54.4-166.4 60.8-25.6 3.2-48 3.2-67.2 3.2z" fill="#F5AA19" p-id="4063"></path></svg>